<svg xmlns="http://www.w3.org/2000/svg" xmlns:xlink="http://www.w3.org/1999/xlink" width="500" zoomAndPan="magnify" viewBox="0 0 375 374.999991" height="500" preserveAspectRatio="xMidYMid meet" version="1.0"><defs><g/><clipPath id="e41f3421f6"><path d="M 185.96875 69.835938 L 240.308594 69.835938 L 240.308594 121.878906 L 185.96875 121.878906 Z M 185.96875 69.835938 " clip-rule="nonzero"/></clipPath></defs><rect x="-37.5" width="450" fill="#ffffff" y="-37.499999" height="449.999989" fill-opacity="1"/><g clip-path="url(#e41f3421f6)"><path fill="#5d9830" d="M 189.910156 120.488281 C 193.773438 113.464844 204.007812 97.96875 224.824219 84.371094 C 206.570312 92.808594 193.191406 110.625 188.246094 117.957031 C 182.683594 106.15625 183.042969 82.984375 240.308594 69.835938 C 236.945312 116.625 203.597656 125.738281 189.910156 120.488281 " fill-opacity="1" fill-rule="nonzero"/></g><path fill="#5d9830" d="M 182.753906 121.015625 C 180.4375 116.804688 174.296875 107.503906 161.804688 99.347656 C 172.757812 104.410156 180.789062 115.097656 183.753906 119.5 C 187.09375 112.417969 186.875 98.515625 152.515625 90.625 C 154.535156 118.699219 174.542969 124.167969 182.753906 121.015625 " fill-opacity="1" fill-rule="nonzero"/><path fill="#80cc2a" d="M 211.410156 152.085938 C 212.515625 153.207031 213.570312 154.371094 214.558594 155.597656 C 215.222656 156.414062 214.070312 154.914062 214.683594 155.765625 C 214.863281 156.011719 215.046875 156.261719 215.226562 156.511719 C 215.753906 157.265625 216.253906 158.035156 216.734375 158.816406 C 217.523438 160.109375 218.242188 161.441406 218.890625 162.8125 C 219.0625 163.171875 219.226562 163.539062 219.386719 163.90625 C 219.277344 163.652344 218.988281 162.84375 219.425781 164.023438 C 219.703125 164.769531 219.980469 165.511719 220.226562 166.269531 C 220.6875 167.679688 221.074219 169.117188 221.386719 170.566406 C 221.535156 171.242188 221.652344 171.921875 221.777344 172.601562 C 222.003906 173.863281 221.832031 172.910156 221.796875 172.640625 C 221.859375 173.128906 221.910156 173.617188 221.953125 174.109375 C 222.222656 177.140625 222.179688 180.210938 221.796875 183.230469 C 221.96875 181.863281 221.621094 184.160156 221.566406 184.433594 C 221.433594 185.113281 221.285156 185.789062 221.121094 186.460938 C 220.746094 188 220.285156 189.519531 219.738281 191.011719 C 219.601562 191.382812 219.457031 191.753906 219.3125 192.125 C 218.941406 193.085938 219.695312 191.300781 219.265625 192.242188 C 218.972656 192.878906 218.675781 193.515625 218.359375 194.144531 C 217.625 195.589844 216.808594 196.992188 215.917969 198.34375 C 215.464844 199.027344 214.992188 199.699219 214.5 200.355469 C 215.09375 199.558594 213.945312 201.023438 213.765625 201.238281 C 212.671875 202.519531 211.503906 203.734375 210.269531 204.882812 C 209.65625 205.453125 209.027344 206.003906 208.382812 206.539062 C 208.144531 206.738281 207.902344 206.933594 207.660156 207.125 C 208.453125 206.503906 207.621094 207.144531 207.484375 207.238281 C 206.140625 208.164062 204.792969 209.074219 203.367188 209.875 C 202.664062 210.269531 201.949219 210.644531 201.226562 210.996094 C 200.957031 211.128906 200.683594 211.257812 200.410156 211.386719 C 200.261719 211.457031 199.113281 211.957031 199.808594 211.664062 C 200.5 211.375 199.34375 211.839844 199.191406 211.902344 C 198.910156 212.007812 198.632812 212.109375 198.351562 212.210938 C 197.507812 212.511719 196.660156 212.785156 195.800781 213.03125 C 194.375 213.445312 192.929688 213.78125 191.472656 214.042969 C 191.082031 214.113281 190.695312 214.171875 190.304688 214.234375 C 190.566406 214.195312 191.546875 214.105469 190.261719 214.234375 C 189.480469 214.3125 188.695312 214.386719 187.910156 214.425781 C 186.4375 214.507812 184.960938 214.511719 183.488281 214.441406 C 182.800781 214.410156 182.113281 214.359375 181.425781 214.296875 C 181.035156 214.257812 180.644531 214.214844 180.253906 214.167969 C 181.546875 214.328125 180.179688 214.136719 179.921875 214.09375 C 176.894531 213.570312 173.921875 212.730469 171.074219 211.574219 C 172.179688 212.023438 170.109375 211.113281 169.875 210.996094 C 169.242188 210.6875 168.617188 210.363281 168 210.019531 C 166.574219 209.230469 165.195312 208.363281 163.867188 207.417969 C 163.75 207.332031 162.722656 206.574219 163.28125 207 C 163.785156 207.382812 162.980469 206.753906 162.957031 206.738281 C 162.316406 206.203125 161.679688 205.664062 161.0625 205.097656 C 159.820312 203.960938 158.640625 202.75 157.539062 201.476562 C 157.371094 201.28125 155.992188 199.539062 156.601562 200.355469 C 156.171875 199.78125 155.757812 199.195312 155.355469 198.597656 C 154.453125 197.25 153.625 195.851562 152.882812 194.414062 C 152.558594 193.785156 152.261719 193.152344 151.957031 192.515625 C 151.417969 191.375 151.796875 192.148438 151.898438 192.402344 C 151.75 192.035156 151.601562 191.664062 151.464844 191.289062 C 150.910156 189.804688 150.4375 188.285156 150.050781 186.746094 C 149.832031 185.886719 149.644531 185.019531 149.480469 184.144531 C 149.425781 183.851562 149.378906 183.5625 149.328125 183.269531 C 148.984375 181.371094 149.425781 184.5625 149.234375 182.644531 C 149.066406 180.980469 148.96875 179.316406 148.980469 177.640625 C 148.992188 175.96875 149.09375 174.296875 149.304688 172.640625 C 149.136719 173.964844 149.527344 171.476562 149.59375 171.148438 C 149.769531 170.277344 149.96875 169.410156 150.199219 168.550781 C 150.632812 166.917969 151.175781 165.320312 151.789062 163.746094 C 152.160156 162.785156 151.40625 164.570312 151.835938 163.628906 C 152.042969 163.171875 152.253906 162.71875 152.472656 162.269531 C 152.828125 161.542969 153.203125 160.832031 153.597656 160.128906 C 154.5 158.527344 155.503906 156.988281 156.601562 155.515625 C 156.523438 155.621094 156.078125 156.171875 156.542969 155.597656 C 156.867188 155.191406 157.199219 154.789062 157.539062 154.398438 C 158.230469 153.601562 158.949219 152.835938 159.691406 152.085938 C 162.136719 149.605469 162.167969 145.441406 159.691406 142.964844 C 157.230469 140.507812 153.019531 140.476562 150.5625 142.964844 C 140 153.675781 134.5625 168.835938 136.472656 183.816406 C 138.449219 199.308594 147.507812 213.316406 161.21875 221.015625 C 174.160156 228.277344 190.257812 229.449219 204.011719 223.785156 C 218.441406 217.84375 229.675781 205.410156 233.5 190.175781 C 237.734375 173.304688 232.734375 155.332031 220.539062 142.964844 C 218.09375 140.484375 213.863281 140.511719 211.410156 142.964844 C 208.925781 145.449219 208.957031 149.597656 211.410156 152.085938 " fill-opacity="1" fill-rule="nonzero"/><path fill="#80cc2a" d="M 191.992188 181.007812 C 191.992188 165.773438 191.992188 150.535156 191.992188 135.300781 C 191.992188 133.121094 191.992188 130.9375 191.992188 128.753906 C 191.992188 125.382812 189.023438 122.148438 185.539062 122.304688 C 182.039062 122.460938 179.082031 125.140625 179.082031 128.753906 C 179.082031 143.992188 179.082031 159.226562 179.082031 174.464844 C 179.082031 176.644531 179.082031 178.828125 179.082031 181.007812 C 179.082031 184.382812 182.050781 187.617188 185.539062 187.460938 C 189.035156 187.304688 191.992188 184.625 191.992188 181.007812 " fill-opacity="1" fill-rule="nonzero"/><g fill="#7cc529" fill-opacity="1"><g transform="translate(83.916349, 269.103387)"><g><path d="M 2.21875 0 L 2.21875 -21.046875 L 11.8125 -21.046875 C 13.519531 -21.046875 14.988281 -20.738281 16.21875 -20.125 C 17.445312 -19.507812 18.394531 -18.640625 19.0625 -17.515625 C 19.738281 -16.398438 20.078125 -15.0625 20.078125 -13.5 C 20.078125 -12.03125 19.773438 -10.75 19.171875 -9.65625 C 18.578125 -8.570312 17.71875 -7.71875 16.59375 -7.09375 L 20.46875 0 L 13.59375 0 L 10.578125 -5.984375 L 8.296875 -5.984375 L 8.296875 0 Z M 8.171875 -10.828125 L 11 -10.828125 C 11.96875 -10.828125 12.707031 -11.054688 13.21875 -11.515625 C 13.726562 -11.972656 13.984375 -12.625 13.984375 -13.46875 C 13.984375 -14.3125 13.726562 -14.957031 13.21875 -15.40625 C 12.707031 -15.851562 11.96875 -16.078125 11 -16.078125 L 8.171875 -16.078125 Z M 8.171875 -10.828125 "/></g></g></g><g fill="#7cc529" fill-opacity="1"><g transform="translate(105.555721, 269.103387)"><g><path d="M 9.921875 0.453125 C 8.160156 0.453125 6.601562 0.0976562 5.25 -0.609375 C 3.894531 -1.328125 2.835938 -2.316406 2.078125 -3.578125 C 1.316406 -4.835938 0.9375 -6.300781 0.9375 -7.96875 C 0.9375 -9.632812 1.316406 -11.09375 2.078125 -12.34375 C 2.835938 -13.59375 3.898438 -14.570312 5.265625 -15.28125 C 6.628906 -16 8.191406 -16.359375 9.953125 -16.359375 C 11.859375 -16.359375 13.492188 -15.953125 14.859375 -15.140625 C 16.234375 -14.328125 17.273438 -13.179688 17.984375 -11.703125 C 18.703125 -10.234375 19.007812 -8.507812 18.90625 -6.53125 L 6.640625 -6.53125 C 6.859375 -5.664062 7.28125 -5.007812 7.90625 -4.5625 C 8.53125 -4.125 9.242188 -3.90625 10.046875 -3.90625 C 10.660156 -3.90625 11.226562 -4.015625 11.75 -4.234375 C 12.269531 -4.453125 12.691406 -4.753906 13.015625 -5.140625 L 18.609375 -5.140625 C 17.910156 -3.378906 16.800781 -2.003906 15.28125 -1.015625 C 13.769531 -0.0351562 11.984375 0.453125 9.921875 0.453125 Z M 6.671875 -9.65625 L 13.40625 -9.65625 C 13.164062 -10.394531 12.757812 -10.972656 12.1875 -11.390625 C 11.613281 -11.816406 10.890625 -12.03125 10.015625 -12.03125 C 9.210938 -12.03125 8.515625 -11.820312 7.921875 -11.40625 C 7.328125 -11 6.910156 -10.414062 6.671875 -9.65625 Z M 6.671875 -9.65625 "/></g></g></g><g fill="#7cc529" fill-opacity="1"><g transform="translate(125.361754, 269.103387)"><g><path d="M 9.984375 0.453125 C 8.203125 0.453125 6.628906 0.0976562 5.265625 -0.609375 C 3.898438 -1.328125 2.835938 -2.320312 2.078125 -3.59375 C 1.316406 -4.863281 0.9375 -6.320312 0.9375 -7.96875 C 0.9375 -9.613281 1.320312 -11.0625 2.09375 -12.3125 C 2.863281 -13.5625 3.925781 -14.546875 5.28125 -15.265625 C 6.644531 -15.992188 8.210938 -16.359375 9.984375 -16.359375 C 11.546875 -16.359375 12.953125 -16.078125 14.203125 -15.515625 C 15.453125 -14.953125 16.484375 -14.160156 17.296875 -13.140625 C 18.109375 -12.117188 18.625 -10.914062 18.84375 -9.53125 L 13.4375 -9.53125 C 13.113281 -10.164062 12.65625 -10.664062 12.0625 -11.03125 C 11.476562 -11.394531 10.804688 -11.578125 10.046875 -11.578125 C 9.015625 -11.578125 8.175781 -11.238281 7.53125 -10.5625 C 6.894531 -9.894531 6.578125 -9.03125 6.578125 -7.96875 C 6.578125 -6.882812 6.894531 -6.003906 7.53125 -5.328125 C 8.175781 -4.660156 9.015625 -4.328125 10.046875 -4.328125 C 10.859375 -4.328125 11.570312 -4.535156 12.1875 -4.953125 C 12.800781 -5.378906 13.25 -5.953125 13.53125 -6.671875 L 19 -6.671875 C 18.757812 -5.234375 18.226562 -3.976562 17.40625 -2.90625 C 16.582031 -1.832031 15.539062 -1.003906 14.28125 -0.421875 C 13.019531 0.160156 11.585938 0.453125 9.984375 0.453125 Z M 9.984375 0.453125 "/></g></g></g><g fill="#7cc529" fill-opacity="1"><g transform="translate(145.2279, 269.103387)"><g><path d="M 2.375 6.015625 L 2.375 1.171875 L 4.328125 1.171875 C 5.148438 1.171875 5.753906 1.046875 6.140625 0.796875 C 6.535156 0.546875 6.84375 0.0976562 7.0625 -0.546875 L 0.15625 -15.90625 L 6.53125 -15.90625 L 8.359375 -11.1875 L 9.828125 -7.484375 L 11.0625 -11.1875 L 12.65625 -15.90625 L 18.84375 -15.90625 L 11.8125 1.53125 C 11.351562 2.675781 10.835938 3.570312 10.265625 4.21875 C 9.691406 4.875 8.960938 5.335938 8.078125 5.609375 C 7.203125 5.878906 6.0625 6.015625 4.65625 6.015625 Z M 2.375 6.015625 "/></g></g></g><g fill="#7cc529" fill-opacity="1"><g transform="translate(164.222465, 269.103387)"><g><path d="M 9.984375 0.453125 C 8.203125 0.453125 6.628906 0.0976562 5.265625 -0.609375 C 3.898438 -1.328125 2.835938 -2.320312 2.078125 -3.59375 C 1.316406 -4.863281 0.9375 -6.320312 0.9375 -7.96875 C 0.9375 -9.613281 1.320312 -11.0625 2.09375 -12.3125 C 2.863281 -13.5625 3.925781 -14.546875 5.28125 -15.265625 C 6.644531 -15.992188 8.210938 -16.359375 9.984375 -16.359375 C 11.546875 -16.359375 12.953125 -16.078125 14.203125 -15.515625 C 15.453125 -14.953125 16.484375 -14.160156 17.296875 -13.140625 C 18.109375 -12.117188 18.625 -10.914062 18.84375 -9.53125 L 13.4375 -9.53125 C 13.113281 -10.164062 12.65625 -10.664062 12.0625 -11.03125 C 11.476562 -11.394531 10.804688 -11.578125 10.046875 -11.578125 C 9.015625 -11.578125 8.175781 -11.238281 7.53125 -10.5625 C 6.894531 -9.894531 6.578125 -9.03125 6.578125 -7.96875 C 6.578125 -6.882812 6.894531 -6.003906 7.53125 -5.328125 C 8.175781 -4.660156 9.015625 -4.328125 10.046875 -4.328125 C 10.859375 -4.328125 11.570312 -4.535156 12.1875 -4.953125 C 12.800781 -5.378906 13.25 -5.953125 13.53125 -6.671875 L 19 -6.671875 C 18.757812 -5.234375 18.226562 -3.976562 17.40625 -2.90625 C 16.582031 -1.832031 15.539062 -1.003906 14.28125 -0.421875 C 13.019531 0.160156 11.585938 0.453125 9.984375 0.453125 Z M 9.984375 0.453125 "/></g></g></g><g fill="#7cc529" fill-opacity="1"><g transform="translate(184.088611, 269.103387)"><g><path d="M 2.015625 0 L 2.015625 -22.25 L 7.78125 -22.25 L 7.78125 0 Z M 2.015625 0 "/></g></g></g><g fill="#7cc529" fill-opacity="1"><g transform="translate(193.88644, 269.103387)"><g><path d="M 9.921875 0.453125 C 8.160156 0.453125 6.601562 0.0976562 5.25 -0.609375 C 3.894531 -1.328125 2.835938 -2.316406 2.078125 -3.578125 C 1.316406 -4.835938 0.9375 -6.300781 0.9375 -7.96875 C 0.9375 -9.632812 1.316406 -11.09375 2.078125 -12.34375 C 2.835938 -13.59375 3.898438 -14.570312 5.265625 -15.28125 C 6.628906 -16 8.191406 -16.359375 9.953125 -16.359375 C 11.859375 -16.359375 13.492188 -15.953125 14.859375 -15.140625 C 16.234375 -14.328125 17.273438 -13.179688 17.984375 -11.703125 C 18.703125 -10.234375 19.007812 -8.507812 18.90625 -6.53125 L 6.640625 -6.53125 C 6.859375 -5.664062 7.28125 -5.007812 7.90625 -4.5625 C 8.53125 -4.125 9.242188 -3.90625 10.046875 -3.90625 C 10.660156 -3.90625 11.226562 -4.015625 11.75 -4.234375 C 12.269531 -4.453125 12.691406 -4.753906 13.015625 -5.140625 L 18.609375 -5.140625 C 17.910156 -3.378906 16.800781 -2.003906 15.28125 -1.015625 C 13.769531 -0.0351562 11.984375 0.453125 9.921875 0.453125 Z M 6.671875 -9.65625 L 13.40625 -9.65625 C 13.164062 -10.394531 12.757812 -10.972656 12.1875 -11.390625 C 11.613281 -11.816406 10.890625 -12.03125 10.015625 -12.03125 C 9.210938 -12.03125 8.515625 -11.820312 7.921875 -11.40625 C 7.328125 -11 6.910156 -10.414062 6.671875 -9.65625 Z M 6.671875 -9.65625 "/></g></g></g><g fill="#3b661a" fill-opacity="1"><g transform="translate(220.751637, 269.594793)"><g><path d="M 2.015625 0 L 2.015625 -22.25 L 7.78125 -22.25 L 7.78125 -15 C 8.925781 -15.90625 10.351562 -16.359375 12.0625 -16.359375 C 14.082031 -16.359375 15.671875 -15.722656 16.828125 -14.453125 C 17.992188 -13.191406 18.578125 -11.476562 18.578125 -9.3125 L 18.578125 0 L 12.8125 0 L 12.8125 -8.71875 C 12.8125 -9.65625 12.59375 -10.363281 12.15625 -10.84375 C 11.726562 -11.332031 11.132812 -11.578125 10.375 -11.578125 C 9.570312 -11.578125 8.9375 -11.316406 8.46875 -10.796875 C 8.007812 -10.273438 7.78125 -9.53125 7.78125 -8.5625 L 7.78125 0 Z M 2.015625 0 "/></g></g></g><g fill="#3b661a" fill-opacity="1"><g transform="translate(241.041209, 269.594793)"><g><path d="M 8.328125 0.453125 C 6.304688 0.453125 4.695312 -0.179688 3.5 -1.453125 C 2.3125 -2.722656 1.71875 -4.429688 1.71875 -6.578125 L 1.71875 -15.90625 L 7.484375 -15.90625 L 7.484375 -7.1875 C 7.484375 -6.257812 7.695312 -5.550781 8.125 -5.0625 C 8.5625 -4.570312 9.148438 -4.328125 9.890625 -4.328125 C 10.671875 -4.328125 11.285156 -4.585938 11.734375 -5.109375 C 12.191406 -5.628906 12.421875 -6.378906 12.421875 -7.359375 L 12.421875 -15.90625 L 18.1875 -15.90625 L 18.1875 0 L 14.0625 0 L 13.46875 -1.625 C 12.25 -0.238281 10.535156 0.453125 8.328125 0.453125 Z M 8.328125 0.453125 "/></g></g></g><g fill="#3b661a" fill-opacity="1"><g transform="translate(261.270665, 269.594793)"><g><path d="M 12.265625 0.453125 C 11.160156 0.453125 10.132812 0.273438 9.1875 -0.078125 C 8.25 -0.441406 7.429688 -0.945312 6.734375 -1.59375 L 6.15625 0 L 2.015625 0 L 2.015625 -22.25 L 7.78125 -22.25 L 7.78125 -15.09375 C 9.0625 -15.9375 10.554688 -16.359375 12.265625 -16.359375 C 13.867188 -16.359375 15.28125 -16 16.5 -15.28125 C 17.726562 -14.570312 18.6875 -13.585938 19.375 -12.328125 C 20.0625 -11.066406 20.40625 -9.613281 20.40625 -7.96875 C 20.40625 -6.300781 20.0625 -4.835938 19.375 -3.578125 C 18.6875 -2.316406 17.726562 -1.328125 16.5 -0.609375 C 15.28125 0.0976562 13.867188 0.453125 12.265625 0.453125 Z M 7.578125 -7.96875 C 7.578125 -6.90625 7.90625 -6.03125 8.5625 -5.34375 C 9.226562 -4.664062 10.09375 -4.328125 11.15625 -4.328125 C 12.21875 -4.328125 13.078125 -4.664062 13.734375 -5.34375 C 14.398438 -6.03125 14.734375 -6.90625 14.734375 -7.96875 C 14.734375 -9.03125 14.398438 -9.894531 13.734375 -10.5625 C 13.078125 -11.238281 12.21875 -11.578125 11.15625 -11.578125 C 10.09375 -11.578125 9.226562 -11.238281 8.5625 -10.5625 C 7.90625 -9.894531 7.578125 -9.03125 7.578125 -7.96875 Z M 7.578125 -7.96875 "/></g></g></g></svg>